<?xml version="1.0" encoding="UTF-8"?>
<!--
  한푼 앱 아이콘 원본 — 주황 그라데이션 배경 + 크림 엽전.
  iOS 는 1024 단일 슬롯, Android 는 적응형 아이콘 전경/배경으로 나눠 쓴다.
  라운드 처리는 OS 가 하므로 여기서는 사각 그대로 둔다.
-->
<svg xmlns="http://www.w3.org/2000/svg" width="1024" height="1024" viewBox="0 0 1024 1024">
  <defs>
    <linearGradient id="bg" x1="0" y1="0" x2="0.52" y2="1">
      <stop offset="0" stop-color="#f28551"/>
      <stop offset=".55" stop-color="#eb6834"/>
      <stop offset="1" stop-color="#d95926"/>
    </linearGradient>
    <radialGradient id="face" cx=".36" cy=".28" r="1">
      <stop offset="0" stop-color="#fffefb"/>
      <stop offset=".55" stop-color="#f8f0e1"/>
      <stop offset="1" stop-color="#e6d8c0"/>
    </radialGradient>
    <linearGradient id="edge" x1="0" y1="0" x2="0" y2="1">
      <stop offset="0" stop-color="#d3c1a4"/>
      <stop offset="1" stop-color="#b9a583"/>
    </linearGradient>
    <mask id="hole">
      <rect width="52" height="52" fill="#fff"/>
      <rect x="20.7" y="20" width="10.6" height="10.6" rx="2.5" fill="#000"/>
    </mask>
    <clipPath id="holeclip">
      <rect x="20.7" y="20" width="10.6" height="10.6" rx="2.5"/>
    </clipPath>
    <filter id="b1"><feGaussianBlur stdDeviation=".7"/></filter>
    <filter id="b2"><feGaussianBlur stdDeviation="1.7"/></filter>
  </defs>

  <rect width="1024" height="1024" fill="url(#bg)"/>

  <!-- 52 단위 마크를 아이콘 한가운데 64% 크기로 배치 (아이콘 세이프 존) -->
  <g transform="translate(184.32 184.32) scale(12.6154)">
    <ellipse cx="26" cy="47.6" rx="14.5" ry="2.4" fill="#96380e" opacity=".32" filter="url(#b2)"/>
    <g transform="rotate(-8 26 26)">
      <g mask="url(#hole)">
        <circle cx="26" cy="27.2" r="21.3" fill="url(#edge)"/>
        <circle cx="26" cy="25.2" r="21.3" fill="url(#face)"/>
        <circle cx="26" cy="25.2" r="17" fill="none" stroke="#b06a3a" stroke-width="1.5" opacity=".3"/>
        <path d="M11.6 16.5 A17.5 17.5 0 0 1 22.5 6.9" fill="none" stroke="#ffffff"
              stroke-width="3.2" stroke-linecap="round" opacity=".9" filter="url(#b1)"/>
      </g>
      <g clip-path="url(#holeclip)">
        <rect x="20.7" y="20" width="10.6" height="2.4" fill="#6e2a08" opacity=".38" filter="url(#b1)"/>
      </g>
      <path d="M40.5 9.6 l1.1 2.5 2.5 1.1 -2.5 1.1 -1.1 2.5 -1.1 -2.5 -2.5 -1.1 2.5 -1.1z"
            fill="#ffffff" opacity=".95"/>
    </g>
  </g>
</svg>
